<svg xmlns="http://www.w3.org/2000/svg" viewBox="0 0 512 512" width="512" height="512">
  
  <defs>
    <radialGradient id="bg" cx="50%" cy="38%" r="75%"><stop offset="0" stop-color="#f3e4be"/><stop offset="0.6" stop-color="#e3c168"/><stop offset="1" stop-color="#c99816"/></radialGradient>
    <linearGradient id="band" x1="0" y1="0" x2="1" y2="1"><stop offset="0.35" stop-color="#fff" stop-opacity="0"/><stop offset="0.5" stop-color="#fff" stop-opacity="0.22"/><stop offset="0.65" stop-color="#fff" stop-opacity="0"/></linearGradient>
    <clipPath id="frame"><rect width="512" height="512" rx="26"/></clipPath>
  </defs>
  <g clip-path="url(#frame)">
    <rect width="512" height="512" fill="url(#bg)"/>
    <rect width="512" height="512" fill="url(#band)"/>
    <g opacity="0.12" stroke="#fff"><line x1="0" y1="0" x2="0" y2="512"/><line x1="64" y1="0" x2="64" y2="512"/><line x1="128" y1="0" x2="128" y2="512"/><line x1="192" y1="0" x2="192" y2="512"/><line x1="256" y1="0" x2="256" y2="512"/><line x1="320" y1="0" x2="320" y2="512"/><line x1="384" y1="0" x2="384" y2="512"/><line x1="448" y1="0" x2="448" y2="512"/><line x1="512" y1="0" x2="512" y2="512"/><line x1="0" y1="0" x2="512" y2="0"/><line x1="0" y1="48" x2="512" y2="48"/><line x1="0" y1="96" x2="512" y2="96"/><line x1="0" y1="144" x2="512" y2="144"/><line x1="0" y1="192" x2="512" y2="192"/><line x1="0" y1="240" x2="512" y2="240"/><line x1="0" y1="288" x2="512" y2="288"/><line x1="0" y1="336" x2="512" y2="336"/><line x1="0" y1="384" x2="512" y2="384"/><line x1="0" y1="432" x2="512" y2="432"/><line x1="0" y1="480" x2="512" y2="480"/><line x1="0" y1="528" x2="512" y2="528"/></g>
    <circle cx="256" cy="250" r="190" fill="#fff" opacity="0.18"/>
    <path d="M172.121064479388 307.9200722949306 L173.521064479388 310.5200722949306 L176.121064479388 311.9200722949306 L173.521064479388 313.3200722949306 L172.121064479388 315.9200722949306 L170.721064479388 313.3200722949306 L168.121064479388 311.9200722949306 L170.721064479388 310.5200722949306 Z" fill="#fff3b0" opacity="0.55"/><path d="M225.99468954068908 12.306801763777798 L228.44468954068907 16.8568017637778 L232.99468954068908 19.3068017637778 L228.44468954068907 21.756801763777798 L225.99468954068908 26.3068017637778 L223.5446895406891 21.756801763777798 L218.99468954068908 19.3068017637778 L223.5446895406891 16.8568017637778 Z" fill="#fff3b0" opacity="0.9"/><path d="M385.00622960185717 284.0204664228457 L388.50622960185717 290.5204664228457 L395.00622960185717 294.0204664228457 L388.50622960185717 297.5204664228457 L385.00622960185717 304.0204664228457 L381.50622960185717 297.5204664228457 L375.00622960185717 294.0204664228457 L381.50622960185717 290.5204664228457 Z" fill="#fff3b0" opacity="0.55"/><path d="M37.40847914561115 208.03266714232035 L38.80847914561115 210.63266714232034 L41.40847914561115 212.03266714232035 L38.80847914561115 213.43266714232035 L37.40847914561115 216.03266714232035 L36.008479145611155 213.43266714232035 L33.40847914561115 212.03266714232035 L36.008479145611155 210.63266714232034 Z" fill="#fff3b0" opacity="0.9"/><path d="M382.42782342353735 75.17214070452884 L384.87782342353734 79.72214070452884 L389.42782342353735 82.17214070452884 L384.87782342353734 84.62214070452885 L382.42782342353735 89.17214070452884 L379.97782342353736 84.62214070452885 L375.42782342353735 82.17214070452884 L379.97782342353736 79.72214070452884 Z" fill="#fff3b0" opacity="0.55"/><path d="M249.84841714764985 401.42752423233037 L253.34841714764985 407.92752423233037 L259.84841714764985 411.42752423233037 L253.34841714764985 414.92752423233037 L249.84841714764985 421.42752423233037 L246.34841714764985 414.92752423233037 L239.84841714764985 411.42752423233037 L246.34841714764985 407.92752423233037 Z" fill="#fff3b0" opacity="0.9"/><path d="M126.10031225987947 61.510752804302086 L127.50031225987948 64.11075280430208 L130.10031225987947 65.51075280430209 L127.50031225987948 66.91075280430209 L126.10031225987947 69.51075280430209 L124.70031225987947 66.91075280430209 L122.10031225987947 65.51075280430209 L124.70031225987947 64.11075280430208 Z" fill="#fff3b0" opacity="0.55"/><path d="M415.9650687639306 209.4031456749697 L418.4150687639306 213.9531456749697 L422.9650687639306 216.4031456749697 L418.4150687639306 218.85314567496968 L415.9650687639306 223.4031456749697 L413.5150687639306 218.85314567496968 L408.9650687639306 216.4031456749697 L413.5150687639306 213.9531456749697 Z" fill="#fff3b0" opacity="0.9"/><path d="M82.87036320376126 303.2074395915304 L86.37036320376126 309.7074395915304 L92.87036320376126 313.2074395915304 L86.37036320376126 316.7074395915304 L82.87036320376126 323.2074395915304 L79.37036320376126 316.7074395915304 L72.87036320376126 313.2074395915304 L79.37036320376126 309.7074395915304 Z" fill="#fff3b0" opacity="0.55"/><path d="M291.28812439184384 39.89799455390184 L292.6881243918438 42.49799455390184 L295.28812439184384 43.89799455390184 L292.6881243918438 45.29799455390184 L291.28812439184384 47.89799455390184 L289.88812439184386 45.29799455390184 L287.28812439184384 43.89799455390184 L289.88812439184386 42.49799455390184 Z" fill="#fff3b0" opacity="0.9"/><path d="M374.4587572293125 370.4336312453372 L376.90875722931247 374.9836312453372 L381.4587572293125 377.4336312453372 L376.90875722931247 379.8836312453372 L374.4587572293125 384.4336312453372 L372.0087572293125 379.8836312453372 L367.4587572293125 377.4336312453372 L372.0087572293125 374.9836312453372 Z" fill="#fff3b0" opacity="0.55"/><path d="M70.9477911704387 140.6665346249287 L74.4477911704387 147.1665346249287 L80.9477911704387 150.6665346249287 L74.4477911704387 154.1665346249287 L70.9477911704387 160.6665346249287 L67.4477911704387 154.1665346249287 L60.947791170438705 150.6665346249287 L67.4477911704387 147.1665346249287 Z" fill="#fff3b0" opacity="0.9"/><path d="M396.2118712226701 134.45269099081358 L397.61187122267006 137.05269099081357 L400.2118712226701 138.45269099081358 L397.61187122267006 139.85269099081358 L396.2118712226701 142.45269099081358 L394.8118712226701 139.85269099081358 L392.2118712226701 138.45269099081358 L394.8118712226701 137.05269099081357 Z" fill="#fff3b0" opacity="0.55"/><path d="M179.40124361462188 368.0115445374188 L181.85124361462186 372.5615445374188 L186.40124361462188 375.0115445374188 L181.85124361462186 377.4615445374188 L179.40124361462188 382.0115445374188 L176.9512436146219 377.4615445374188 L172.40124361462188 375.0115445374188 L176.9512436146219 372.5615445374188 Z" fill="#fff3b0" opacity="0.9"/>
  </g>
  <defs>
    <linearGradient id="bodyShade" x1="0" y1="0" x2="1" y2="0"><stop offset="0" stop-color="#000" stop-opacity="0.18"/><stop offset="0.45" stop-color="#000" stop-opacity="0"/><stop offset="1" stop-color="#000" stop-opacity="0.12"/></linearGradient>
    <linearGradient id="faceShade" x1="0" y1="0" x2="0" y2="1"><stop offset="0.6" stop-color="#000" stop-opacity="0"/><stop offset="1" stop-color="#000" stop-opacity="0.12"/></linearGradient>
  </defs>
  <g clip-path="url(#frame)">
    <path d="M130 220 C126 78 196 58 256 58 C316 58 386 78 382 220 Z" fill="#1e1e1e"/><path d="M126 210 L124 270 Q140 294 152 260 L152 210 Z M386 210 L388 270 Q372 294 360 260 L360 210 Z" fill="#1e1e1e"/>
    <path d="M84 522 C84 458 124 418 186 412 L216 394 L296 394 L326 412 C388 418 428 458 428 522 Z" fill="#f0932b"/><path d="M84 522 C84 458 124 418 186 412 L216 394 L296 394 L326 412 C388 418 428 458 428 522 Z" fill="url(#bodyShade)"/><path d="M194 416 L220 396 L256 446 L292 396 L318 416 L296 512 L216 512 Z" fill="#ffffff"/><path d="M220 396 L198 442 L250 432 Z M292 396 L314 442 L262 432 Z" fill="#f1f2f6" stroke="#d9dbe3" stroke-width="2"/><path d="M184 412 L236 480 L194 512 L106 512 Z" fill="#ad6a1f"/><path d="M328 412 L276 480 L318 512 L406 512 Z" fill="#ad6a1f"/><path d="M184 412 L236 480 L216 442 Z" fill="#f3a651" opacity="0.5"/>
    <rect x="226" y="350" width="60" height="72" fill="#d8ba9e"/><path d="M144 210 C140 300 192 364 256 372 C320 364 372 300 368 210 C368 132 326 102 256 102 C186 102 144 132 144 210 Z" fill="#f6d3b4"/><path d="M144 210 C140 300 192 364 256 372 C320 364 372 300 368 210 C368 132 326 102 256 102 C186 102 144 132 144 210 Z" fill="url(#faceShade)"/><ellipse cx="142" cy="256" rx="12" ry="18" fill="#f6d3b4"/><ellipse cx="370" cy="256" rx="12" ry="18" fill="#f6d3b4"/><ellipse cx="190" cy="300" rx="22" ry="10" fill="#ff8fa3" opacity="0.2"/><ellipse cx="322" cy="300" rx="22" ry="10" fill="#ff8fa3" opacity="0.2"/>
    <ellipse cx="206" cy="258" rx="21" ry="24" fill="#fff"/><ellipse cx="204" cy="261" rx="13.860000000000001" ry="18.72" fill="#f9ca24"/><ellipse cx="204" cy="266" rx="10.5" ry="12" fill="#896f14"/><ellipse cx="204" cy="263" rx="6.3" ry="10.08" fill="#1a1a1a"/><circle cx="198" cy="248" r="7" fill="#fff"/><circle cx="214" cy="268" r="3.5" fill="#fff" opacity="0.9"/><path d="M181 254 Q206 222 231 252" stroke="#2b1d16" stroke-width="5" fill="none" stroke-linecap="round"/><path d="M185 212 Q206 200 227 212" stroke="#1c1c1c" stroke-width="8" fill="none" stroke-linecap="round"/><ellipse cx="306" cy="258" rx="21" ry="24" fill="#fff"/><ellipse cx="308" cy="261" rx="13.860000000000001" ry="18.72" fill="#f9ca24"/><ellipse cx="308" cy="266" rx="10.5" ry="12" fill="#896f14"/><ellipse cx="308" cy="263" rx="6.3" ry="10.08" fill="#1a1a1a"/><circle cx="298" cy="248" r="7" fill="#fff"/><circle cx="314" cy="268" r="3.5" fill="#fff" opacity="0.9"/><path d="M281 254 Q306 222 331 252" stroke="#2b1d16" stroke-width="5" fill="none" stroke-linecap="round"/><path d="M285 212 Q306 200 327 212" stroke="#1c1c1c" stroke-width="8" fill="none" stroke-linecap="round"/>
    <path d="M242 324 L270 324" stroke="#b5544a" stroke-width="5" stroke-linecap="round"/>
    <path d="M136 220 C136 72 196 62 256 62 C316 62 376 72 376 220 L366 194 L326 218 L300 194 L272 222 L244 196 L216 220 L188 196 L146 214 Z" fill="#2b2b2b"/><path d="M186 96 Q226 76 266 82" stroke="#757575" stroke-width="9" fill="none" stroke-linecap="round" opacity="0.85"/><path d="M216 118 Q246 104 284 108" stroke="#757575" stroke-width="5" fill="none" stroke-linecap="round" opacity="0.6"/>
    <path d="M126 142 C126 40 386 40 386 142 Z" fill="#f4d03f"/><rect x="108" y="132" width="296" height="18" rx="9" fill="#d4ac0d"/><path d="M196 92 Q256 58 316 92" stroke="#fff" stroke-width="8" opacity="0.5" fill="none" stroke-linecap="round"/><path d="M172 290 Q184 398 256 402 Q328 398 340 290 Q316 346 256 348 Q196 346 172 290 Z" fill="#202020"/><path d="M222 342 Q256 354 290 342" stroke="#606060" stroke-width="5" fill="none" opacity="0.6"/>
  </g>
  <rect x="3" y="3" width="506" height="506" rx="24" fill="none" stroke="#d4a017" stroke-width="6"/>
</svg>